<?xml version="1.0" standalone="no"?>
<!DOCTYPE svg PUBLIC "-//W3C//DTD SVG 20010904//EN"
 "http://www.w3.org/TR/2001/REC-SVG-20010904/DTD/svg10.dtd">
<svg version="1.0" xmlns="http://www.w3.org/2000/svg"
 width="1280.000000pt" height="1141.000000pt" viewBox="0 0 1280.000000 1141.000000"
 preserveAspectRatio="xMidYMid meet">
<g transform="translate(0.000000,1141.000000) scale(0.100000,-0.100000)"
fill="#000000" stroke="none">
<path d="M6959 11387 c-24 -12 -1005 -852 -2179 -1867 -1174 -1014 -2624
-2267 -3222 -2783 -1182 -1021 -1128 -969 -1112 -1061 5 -29 19 -53 53 -87 41
-42 1245 -1069 5194 -4429 676 -575 1241 -1051 1255 -1059 62 -33 150 -9 194
51 l23 33 5 1310 5 1310 2032 5 2032 5 28 21 c15 12 37 36 48 55 20 34 20 52
20 2804 0 2752 0 2770 -20 2804 -11 19 -33 43 -48 55 l-28 21 -2032 5 -2032 5
-5 1350 c-5 1229 -6 1353 -21 1380 -22 39 -46 60 -93 79 -48 20 -44 20 -97 -7z"/>
</g>
</svg>
